# xmcd CD database file
#
# Track frame offsets:
#	150
#	19499
#	37474
#	56943
#	62110
#	82407
#	102724
#	132799
#	135753
#	155848
#	177757
#	179397
#	208914
#	231643
#	254270
#	256490
#	264672
#	274109
#
# Disc length: 3965 seconds
#
# Revision: 1
# Processed by: cddbd v1.5.2PL0 Copyright (c) Steve Scherf et al.
# Submitted via: CDex 1.70beta2
#
DISCID=260f7b12
DTITLE=DANCE★MAN - MIRRORBALLISM 3
DYEAR=2000
DGENRE=Dance
TTITLE0=接吻のテーマ
TTITLE1=やっぱりビリである
TTITLE2=甘えてる円盤
TTITLE3=お知らせ
TTITLE4=漢字読めるけど書けない
TTITLE5=釣りしよう!ほら、サオ振ろう!
TTITLE6=ビール大好き
TTITLE7=MC1
TTITLE8=”ドーム3コ分”ってどのくらい？
TTITLE9=リツコ選んだ銀
TTITLE10=ICHIROのお遊び
TTITLE11=英語を使って話したい
TTITLE12=いつもゴールデンかラブラドール
TTITLE13=恋と愛の天国
TTITLE14=MC2
TTITLE15=メンバー紹介
TTITLE16=ニセダンス★マン登場
TTITLE17=なかったコトにして
EXTD=YEAR: 2000
EXTT0=
EXTT1=
EXTT2=
EXTT3=
EXTT4=
EXTT5=
EXTT6=
EXTT7=
EXTT8=
EXTT9=
EXTT10=
EXTT11=
EXTT12=
EXTT13=
EXTT14=
EXTT15=
EXTT16=
EXTT17=
PLAYORDER=
